#!OML:ASF I:\Random Stuff\random\construction\7_22_03\Session 2\subj1.ASF
:FULLY-SPECIFIED
:DEGREES
329
root 5.40516 17.6414 -10.5619 19.3191 -32.0452 -3.325
lowerback 17.3046 -1.74823 1.19517
upperback 5.0243 -2.48571 -5.13949
thorax -4.58868 -1.26741 -5.64213
lowerneck -21.6322 3.29656 -5.13609
upperneck 37.5845 6.26579 1.33698
head 17.1643 1.8175 2.73412
rclavicle 3.49861e-014 1.11319e-014
rhumerus -40.3451 28.077 -79.7811
rradius 110.792
rwrist -26.6813
rhand -27.0447 32.9318
rfingers 7.12502
rthumb -0.463308 2.95256
lclavicle 3.49861e-014 1.11319e-014
lhumerus 8.79685 -24.4451 89.0829
lradius 48.3104
lwrist 48.5761
lhand -12.7132 60.3592
lfingers 7.12502
lthumb 13.3697 89.9102
rfemur -28.2206 -3.13261 25.5691
rtibia 17.4512
rfoot -5.63488 -7.86428
rtoes -23.3584
lfemur -36.0485 10.0189 -9.47782
ltibia 35.8365
lfoot -11.7096 6.83441
ltoes -12.2196
330
root 5.40841 17.6426 -10.4754 19.1118 -32.0656 -3.48019
lowerback 16.9506 -1.82735 1.27784
upperback 5.00983 -2.56346 -5.04018
thorax -4.42292 -1.30315 -5.56938
lowerneck -21.7478 3.37107 -5.10425
upperneck 37.7787 6.24981 1.64546
head 17.2789 1.84823 2.87437
rclavicle 1.11319e-013 7.95139e-015
rhumerus -40.055 28.9285 -79.2411
rradius 111.224
rwrist -27.7364
rhand -26.3846 32.2695
rfingers 7.12502
rthumb 0.17426 2.2898
lclavicle 1.11319e-013 7.95139e-015
lhumerus 8.57006 -24.2234 89.3495
lradius 47.3699
lwrist 48.0808
lhand -12.4566 59.8337
lfingers 7.12502
lthumb 13.617 89.3683
rfemur -27.4595 -3.04882 25.4527
rtibia 17.1241
rfoot -5.66171 -7.99257
rtoes -23.6479
lfemur -36.0531 9.50069 -9.60972
ltibia 34.3722
lfoot -12.1756 8.22913
ltoes -14.7652
331
root 5.41351 17.6426 -10.3883 19.1963 -32.2783 -3.73703
lowerback 16.3456 -1.80604 1.37676
upperback 4.9309 -2.51168 -5.01089
thorax -4.18101 -1.27532 -5.61304
lowerneck -21.8658 3.40383 -4.99986
upperneck 38.0114 6.15815 1.91237
head 17.4263 1.85079 2.97171
rclavicle 7.4743e-014 -9.54166e-015
rhumerus -39.7894 29.6625 -78.7579
rradius 111.634
rwrist -28.9144
rhand -25.7171 31.6739
rfingers 7.12502
rthumb 0.818996 1.69571
lclavicle 7.4743e-014 -9.54166e-015
lhumerus 8.35839 -24.1625 89.5406
lradius 46.4062
lwrist 47.4992
lhand -12.1323 59.1996
lfingers 7.12502
lthumb 13.9295 88.7131
rfemur -26.9268 -2.8453 25.445
rtibia 16.7174
rfoot -5.62569 -7.97093
rtoes -24.3843
lfemur -36.2635 9.232 -9.64347
ltibia 32.9469
lfoot -12.457 9.19781
ltoes -17.8658
332
root 5.42885 17.6438 -10.2902 19.059 -32.4146 -4.0617
lowerback 15.9505 -1.85336 1.84561
upperback 4.97626 -2.5052 -5.15914
thorax -3.94475 -1.26976 -6.05188
lowerneck -21.9711 3.40386 -4.75486
upperneck 38.2359 5.95048 2.18679
head 17.5797 1.82939 3.02565
rclavicle -8.11041e-014 -4.45278e-014
rhumerus -39.4853 30.1471 -78.5112
rradius 111.964
rwrist -30.0456
rhand -25.2224 31.0377
rfingers 7.12502
rthumb 1.29676 1.06193
lclavicle -8.11041e-014 -4.45278e-014
lhumerus 8.29837 -24.4098 89.4447
lradius 45.4604
lwrist 47.1455
lhand -11.8781 58.7241
lfingers 7.12502
lthumb 14.1745 88.2205
rfemur -26.1274 -2.58785 25.3827
rtibia 16.3843
rfoot -5.63305 -8.12829
rtoes -25.265
lfemur -36.1086 8.20086 -9.27694
ltibia 31.5969
lfoot -12.8496 9.9566
ltoes -18.7455
333
root 5.44774 17.6423 -10.1886 18.8782 -32.6314 -4.38497
lowerback 15.7343 -1.88515 1.90465
upperback 4.94564 -2.53115 -5.05762
thorax -3.86253 -1.28151 -5.97348
lowerneck -21.9602 3.40042 -4.79819
upperneck 38.42 5.92025 2.28507
head 17.6729 1.81303 3.07861
rclavicle -4.77083e-015 -1.27222e-014
rhumerus -39.1213 30.9271 -77.9003
rradius 112.194
rwrist -31.3513
rhand -24.6251 30.4776
rfingers 7.12502
rthumb 1.87363 0.506095
lclavicle -4.77083e-015 -1.27222e-014
lhumerus 8.10185 -24.278 89.7268
lradius 44.582
lwrist 46.8426
lhand -11.6268 58.4045
lfingers 7.12502
lthumb 14.4166 87.8838
rfemur -25.3275 -2.34011 25.3031
rtibia 16.1499
rfoot -5.6972 -8.25066
rtoes -26.3058
lfemur -35.8302 6.91374 -8.78008
ltibia 30.4051
lfoot -12.8417 10.3623
ltoes -20.8159
334
root 5.47044 17.6366 -10.0836 18.701 -32.9798 -4.66218
lowerback 15.4298 -1.94672 1.91901
upperback 4.94594 -2.60818 -5.0462
thorax -3.70834 -1.31726 -5.95882
lowerneck -21.911 3.46633 -4.85404
upperneck 38.4961 5.97875 2.4188
head 17.6878 1.84118 3.16101
rclavicle 3.97569e-014 8.26944e-014
rhumerus -38.5645 31.7401 -77.2697
rradius 112.347
rwrist -32.7246
rhand -23.9649 29.7466
rfingers 7.12502
rthumb 2.51121 -0.218319
lclavicle 3.97569e-014 8.26944e-014
lhumerus 7.9619 -24.0662 89.8081
lradius 43.7663
lwrist 46.7139
lhand -11.768 58.1845
lfingers 7.12502
lthumb 14.2805 87.6734
rfemur -24.6517 -2.12105 25.1724
rtibia 16.0861
rfoot -5.81488 -8.23195
rtoes -27.4454
lfemur -35.5127 5.71869 -8.37303
ltibia 29.4413
lfoot -12.1286 10.188
ltoes -25.4312
335
root 5.49887 17.6255 -9.97428 18.5653 -33.4203 -5.02737
lowerback 15.1699 -1.88901 1.92117
upperback 4.93921 -2.53033 -5.01605
thorax -3.56542 -1.27687 -5.94633
lowerneck -21.8262 3.47219 -4.89909
upperneck 38.5799 5.95844 2.50995
head 17.7063 1.83385 3.20595
rclavicle -4.13472e-014 1.59028e-014
rhumerus -38.0536 32.2831 -76.5205
rradius 112.454
rwrist -34.1955
rhand -23.3019 28.8761
rfingers 7.12502
rthumb 3.15154 -1.08038
lclavicle -4.13472e-014 1.59028e-014
lhumerus 7.81403 -24.0408 90.0094
lradius 42.9151
lwrist 46.6488
lhand -12.0792 57.9868
lfingers 7.12502
lthumb 13.9807 87.4967
rfemur -24.0702 -1.84682 25.0829
rtibia 16.2031
rfoot -6.00579 -8.11881
rtoes -27.7959
lfemur -35.1401 4.65888 -7.93924
ltibia 28.9375
lfoot -11.3569 9.18766
ltoes -30.8872
336
root 5.53193 17.6051 -9.86028 18.4017 -33.9204 -5.48206
lowerback 14.8819 -1.81607 2.18082
upperback 5.03199 -2.40358 -5.14684
thorax -3.31158 -1.20907 -6.26688
lowerneck -21.7541 3.45299 -4.83326
upperneck 38.6358 5.81759 2.68667
head 17.7188 1.80934 3.24634
rclavicle -3.18055e-015 6.20208e-014
rhumerus -37.5572 32.5998 -76.0134
rradius 112.487
rwrist -35.7401
rhand -22.395 27.95
rfingers 7.12502
rthumb 4.02736 -1.99172
lclavicle -3.18055e-015 6.20208e-014
lhumerus 7.76912 -24.2701 89.9501
lradius 42.1186
lwrist 46.5549
lhand -12.1931 57.8586
lfingers 7.12502
lthumb 13.8709 87.3761
rfemur -23.5452 -1.56654 25.0328
rtibia 16.5867
rfoot -6.32202 -7.95807
rtoes -27.4846
lfemur -34.6328 3.68664 -7.4769
ltibia 28.8508
lfoot -9.53405 6.73111
ltoes -20.5313
337
root 5.57056 17.5905 -9.74599 18.1671 -34.4254 -5.92952
lowerback 14.7004 -1.75585 2.32866
upperback 5.12084 -2.30664 -5.2012
thorax -3.11454 -1.15636 -6.43237
lowerneck -21.6597 3.44759 -4.83716
upperneck 38.7058 5.74448 2.81633
head 17.7298 1.79335 3.29042
rclavicle -1.27222e-013 -2.8625e-014
rhumerus -37.13 33.1448 -75.4157
rradius 112.571
rwrist -37.3602
rhand -21.5775 27.0348
rfingers 7.12502
rthumb 4.81669 -2.89049
lclavicle -1.27222e-013 -2.8625e-014
lhumerus 7.65914 -24.3935 90.0334
lradius 41.4304
lwrist 46.3728
lhand -12.3442 57.7049
lfingers 7.12502
lthumb 13.7253 87.2322
rfemur -23.0754 -1.29094 24.9459
rtibia 17.1957
rfoot -6.61759 -7.92046
rtoes -27.566
lfemur -33.6434 3.16209 -7.24033
ltibia 29.1542
lfoot -9.43051 5.53767
ltoes -14.1469
338
root 5.61492 17.5685 -9.63049 17.8665 -34.9351 -6.28545
lowerback 14.5608 -1.67366 2.37213
upperback 5.22645 -2.1952 -5.24606
thorax -2.91599 -1.0961 -6.52874
lowerneck -21.5749 3.38897 -4.79039
upperneck 38.7372 5.67412 2.69875
head 17.7394 1.75108 3.21221
rclavicle -9.06458e-014 -4.77083e-014
rhumerus -36.7146 33.7133 -74.7034
rradius 112.687
rwrist -39.0151
rhand -21.3565 26.4062
rfingers 7.12502
rthumb 5.03011 -3.51405
lclavicle -9.06458e-014 -4.77083e-014
lhumerus 7.52788 -24.4121 90.3141
lradius 40.7423
lwrist 45.8617
lhand -12.2738 57.357
lfingers 7.12502
lthumb 13.7932 86.8797
rfemur -22.7171 -1.09194 24.7804
rtibia 18.0401
rfoot -6.94888 -7.9131
rtoes -28.8473
lfemur -32.8355 2.95112 -7.17303
ltibia 29.6747
lfoot -10.0151 6.66196
ltoes -20.1818
339
root 5.66286 17.5509 -9.5167 17.4744 -35.5001 -6.53808
lowerback 14.5624 -1.56438 2.2279
upperback 5.32926 -2.07361 -5.26734
thorax -2.78837 -1.03342 -6.49028
lowerneck -21.5402 3.30863 -4.65452
upperneck 38.8445 5.62136 2.38176
head 17.8195 1.69401 3.03617
rclavicle -5.725e-014 1.59028e-015
rhumerus -36.3153 34.3312 -73.8664
rradius 112.831
rwrist -40.6614
rhand -21.4833 26.0239
rfingers 7.12502
rthumb 4.90769 -3.89927
lclavicle -5.725e-014 1.59028e-015
lhumerus 7.36903 -24.305 90.7002
lradius 40.1018
lwrist 45.206
lhand -12.0765 57.0029
lfingers 7.12502
lthumb 13.9832 86.5127
rfemur -22.4901 -0.865343 24.5008
rtibia 19.1592
rfoot -7.31461 -7.87737
rtoes -30.5343
lfemur -32.1186 3.40394 -7.40146
ltibia 30.2911
lfoot -10.694 6.63181
ltoes -21.3485
340
root 5.71106 17.5429 -9.40878 16.9357 -36.0825 -6.62658
lowerback 14.692 -1.48798 1.95989
upperback 5.45869 -2.01773 -5.37576
thorax -2.70954 -1.00536 -6.46159
lowerneck -21.5351 3.334 -4.46531
upperneck 38.9676 5.67185 2.15257
head 17.9065 1.69757 2.91253
rclavicle -6.20208e-014 3.97569e-014
rhumerus -35.8209 34.7257 -73.0092
rradius 112.943
rwrist -43.0849
rhand -20.1608 25.5073
rfingers 7.12502
rthumb 6.18457 -4.3824
lclavicle -6.20208e-014 3.97569e-014
lhumerus 7.23526 -24.1736 90.8878
lradius 39.5819
lwrist 44.7556
lhand -11.9566 56.798
lfingers 7.12502
lthumb 14.0988 86.2997
rfemur -22.4959 -0.506571 24.0564
rtibia 20.7152
rfoot -7.53193 -8.10387
rtoes -31.4084
lfemur -31.3032 4.4487 -7.96172
ltibia 30.7074
lfoot -11.1433 5.92063
ltoes -22.39
341
root 5.75448 17.5359 -9.3078 16.2417 -36.5982 -6.38809
lowerback 14.8877 -1.43022 1.40691
upperback 5.56359 -2.03008 -5.52482
thorax -2.69396 -1.0151 -6.29885
lowerneck -21.5289 3.4108 -4.34045
upperneck 39.0679 5.81416 1.95855
head 17.9711 1.73464 2.83322
rclavicle -2.54444e-014 2.70347e-014
rhumerus -35.5678 35.2763 -72.4186
rradius 113.012
rwrist -44.8386
rhand -19.6655 25.0925
rfingers 7.12502
rthumb 6.66275 -4.78271
lclavicle -2.54444e-014 2.70347e-014
lhumerus 7.10188 -24.0041 91.0818
lradius 39.0934
lwrist 44.3365
lhand -11.8081 56.6123
lfingers 7.12502
lthumb 14.2419 86.104
rfemur -22.7563 -0.139837 23.3778
rtibia 22.6358
rfoot -7.54705 -8.56327
rtoes -31.5834
lfemur -30.4742 5.46075 -8.79367
ltibia 30.8896
lfoot -11.3782 5.20142
ltoes -23.7039
342
root 5.79146 17.5332 -9.21339 15.5316 -37.014 -5.87925
lowerback 14.9585 -1.43033 0.840337
upperback 5.66817 -2.12874 -5.84968
thorax -2.62675 -1.06721 -6.30483
lowerneck -21.607 3.4891 -4.08244
upperneck 39.2457 5.87952 1.83494
head 18.108 1.76606 2.75377
rclavicle 4.92986e-014 -5.24792e-014
rhumerus -35.4507 35.7431 -72.1705
rradius 113.04
rwrist -46.1166
rhand -19.4742 24.7995
rfingers 7.12502
rthumb 6.84738 -5.06978
lclavicle 4.92986e-014 -5.24792e-014
lhumerus 7.07742 -24.0673 90.9672
lradius 38.622
lwrist 44.0491
lhand -11.825 56.4378
lfingers 7.12502
lthumb 14.2256 85.9306
rfemur -23.3162 0.255659 22.5195
rtibia 24.8177
rfoot -7.43076 -9.12442
rtoes -31.3155
lfemur -29.7446 6.16662 -9.76976
ltibia 30.8616
lfoot -11.5602 4.64193
ltoes -23.3941
343
root 5.82706 17.5424 -9.12465 14.9133 -37.2951 -5.35194
lowerback 15.0256 -1.4452 0.0482381
upperback 5.71211 -2.26733 -5.94992
thorax -2.6094 -1.14244 -5.92983
lowerneck -21.6048 3.56143 -3.99448
upperneck 39.3296 6.1172 1.44091
head 18.1742 1.80551 2.60681
rclavicle 6.04305e-014 2.38542e-014
rhumerus -35.372 36.3627 -71.7303
rradius 113.056
rwrist -46.9302
rhand -19.8025 24.5386
rfingers 7.12502
rthumb 6.53046 -5.34074
lclavicle 6.04305e-014 2.38542e-014
lhumerus 7.04614 -23.9573 91.1453
lradius 38.1169
lwrist 43.8582
lhand -11.926 56.4446
lfingers 7.12502
lthumb 14.1283 85.9442
rfemur -24.1166 0.744075 21.657
rtibia 27.1868
rfoot -7.2226 -9.68319
rtoes -30.3523
lfemur -29.0997 6.66707 -10.714
ltibia 30.6714
lfoot -11.6689 4.22875
ltoes -23.0686
